<svg id="visual" viewBox="0 0 1600 650" width="1600" height="650" xmlns="http://www.w3.org/2000/svg" xmlns:xlink="http://www.w3.org/1999/xlink" version="1.1"><path d="M0 66L145 66L145 47L291 47L291 60L436 60L436 105L582 105L582 53L727 53L727 92L873 92L873 99L1018 99L1018 112L1164 112L1164 40L1309 40L1309 40L1455 40L1455 79L1600 79L1600 66L1600 0L1600 0L1455 0L1455 0L1309 0L1309 0L1164 0L1164 0L1018 0L1018 0L873 0L873 0L727 0L727 0L582 0L582 0L436 0L436 0L291 0L291 0L145 0L145 0L0 0Z" fill="#ffffff"></path><path d="M0 157L145 157L145 99L291 99L291 183L436 183L436 228L582 228L582 131L727 131L727 164L873 164L873 203L1018 203L1018 157L1164 157L1164 118L1309 118L1309 99L1455 99L1455 177L1600 177L1600 196L1600 64L1600 77L1455 77L1455 38L1309 38L1309 38L1164 38L1164 110L1018 110L1018 97L873 97L873 90L727 90L727 51L582 51L582 103L436 103L436 58L291 58L291 45L145 45L145 64L0 64Z" fill="#f1f0f0"></path><path d="M0 300L145 300L145 255L291 255L291 385L436 385L436 404L582 404L582 378L727 378L727 320L873 320L873 339L1018 339L1018 333L1164 333L1164 417L1309 417L1309 320L1455 320L1455 300L1600 300L1600 300L1600 194L1600 175L1455 175L1455 97L1309 97L1309 116L1164 116L1164 155L1018 155L1018 201L873 201L873 162L727 162L727 129L582 129L582 226L436 226L436 181L291 181L291 97L145 97L145 155L0 155Z" fill="#e3e2e2"></path><path d="M0 449L145 449L145 378L291 378L291 469L436 469L436 456L582 456L582 554L727 554L727 495L873 495L873 398L1018 398L1018 502L1164 502L1164 489L1309 489L1309 456L1455 456L1455 391L1600 391L1600 371L1600 298L1600 298L1455 298L1455 318L1309 318L1309 415L1164 415L1164 331L1018 331L1018 337L873 337L873 318L727 318L727 376L582 376L582 402L436 402L436 383L291 383L291 253L145 253L145 298L0 298Z" fill="#d5d4d4"></path><path d="M0 651L145 651L145 651L291 651L291 651L436 651L436 651L582 651L582 651L727 651L727 651L873 651L873 651L1018 651L1018 651L1164 651L1164 651L1309 651L1309 651L1455 651L1455 651L1600 651L1600 651L1600 369L1600 389L1455 389L1455 454L1309 454L1309 487L1164 487L1164 500L1018 500L1018 396L873 396L873 493L727 493L727 552L582 552L582 454L436 454L436 467L291 467L291 376L145 376L145 447L0 447Z" fill="#c8c6c6"></path></svg>